{"title":"Untouchables Risk - The Movie.avi","uid":10020310,"size":670485742,"categoryP":"video","categoryS":"movies","magnet":"?xt=urn:btih:f1513f87d7f76ddb3d3314caae3dadace86dd924&amp;dn=Untouchables+Risk+-+The+Movie.avi&amp;tr=udp%3A%2F%2Ftracker.openbittorrent.com%3A80&amp;tr=udp%3A%2F%2Fopen.demonii.com%3A1337&amp;tr=udp%3A%2F%2Ftracker.coppersurfer.tk%3A6969&amp;tr=udp%3A%2F%2Fexodus.desync.com%3A6969","seeders":1,"leechers":0,"uploader":"GM_CSH","files":-1,"time":1398196289,"description":"Untouchables Risk - The Movie 720p Avi HD\n\n\nUntouchables Risk - The Classic Movie- Reduxed By me, thats what i am calling these, i have a following for them on vimeo and ive been tinkering with video editing for years and music. I took Escape from new york, gave it a new story and resubtitled it. Its gritty, funny and its very different, it centers around the players from a game called risk 2 at warzone. Being a DJ i used many classic songs from across the board from the sisters of cranberries to queen and to flo rida with each scene, and the music is what makes it what it is. If its for you, and you can give it a shot ive made a series of these and this is the first in a series of 7 reduxes which together make an awesome series. You Tube wont let me have it, Vimeo took my premium account down, yet i made something new so here it is, enjoy GM_CSH\n\nThis is the second in the risk redux series\n\nFile Info Below Cheers\n\nRisk - The Movie.avi\nFormat                                   : AVI\nFormat/Info                              : Audio Video Interleave\nFile size                                : 639 MiB\nDuration                                 : 39mn 33s\nOverall bit rate                         : 2 260 Kbps\nWriting library                          : MPlayer\n\nVideo\nID                                       : 0\nFormat                                   : MPEG-4 Visual\nFormat profile                           : Simple@L1\nFormat settings, BVOP                    : No\nFormat settings, QPel                    : No\nFormat settings, GMC                     : No warppoints\nFormat settings, Matrix                  : Default (H.263)\nCodec ID                                 : DX50\nCodec ID/Hint                            : DivX 5\nDuration                                 : 39mn 33s\nBit rate                                 : 2 024 Kbps\nWidth                                    : 1 280 pixels\nHeight                                   : 720 pixels\nDisplay aspect ratio                     : 16:9\nFrame rate                               : 24.000 fps\nColor space                              : YUV\nChroma subsampling                       : 4:2:0\nBit depth                                : 8 bits\nScan type                                : Interlaced\nScan order                               : Top Field First\nCompression mode                         : Lossy\nBits/(Pixel*Frame)                       : 0.092\nStream size                              : 573 MiB (90%)\nWriting library                          : Lavc52.30.1\n\nAudio\nID                                       : 1\nFormat                                   : MPEG Audio\nFormat version                           : Version 1\nFormat profile                           : Layer 3\nMode                                     : Joint stereo\nCodec ID                                 : 55\nCodec ID/Hint                            : MP3\nDuration                                 : 39mn 32s\nBit rate mode                            : Constant\nBit rate                                 : 224 Kbps\nChannel(s)                               : 2 channels\nSampling rate                            : 44.1 KHz\nCompression mode                         : Lossy\nStream size                              : 63.4 MiB (10%)\nAlignment                                : Aligned on interleaves\nInterleave, duration                     : 26 ms (0.63 video frame)\nInterleave, preload duration             : 809 ms\nWriting library                          : LAME3.98.2","torrent":{"xt":"urn:btih:f1513f87d7f76ddb3d3314caae3dadace86dd924","amp;dn":"Untouchables+Risk+-+The+Movie.avi","amp;tr":["udp%3A%2F%2Ftracker.openbittorrent.com%3A80","udp%3A%2F%2Fopen.demonii.com%3A1337","udp%3A%2F%2Ftracker.coppersurfer.tk%3A6969","udp%3A%2F%2Fexodus.desync.com%3A6969"],"infoHash":"f1513f87d7f76ddb3d3314caae3dadace86dd924","infoHashBuffer":{"type":"Buffer","data":[241,81,63,135,215,247,109,219,61,51,20,202,174,61,173,172,232,109,217,36]},"announce":[],"urlList":[]}}